<?xml version="1.0" encoding="UTF-8"?><svg xmlns="http://www.w3.org/2000/svg" viewBox="0 0 1024 649"><defs><style>.c{fill:none;stroke:#3ac5e8;stroke-miterlimit:10;stroke-width:2px;}.d{fill:#121212;}</style></defs><g id="a"><rect class="d" width="1024" height="649"/></g><g id="b"><polyline class="c" points="50 56 50 596.29 968 596.29"/><path class="c" d="M62,567H667.16c68.1,0,54.74-166.9,74.84-164,15.26,2.2,16.44,68.16,25,68,12.24-.22,15.69-135.06,33-136,9.72-.53,15.84,41.6,26,41,16.2-.95,20.76-109.19,30-109,5.32,.11,7.58,36.06,12,36,7.89-.11,6.7-114.89,28-118,9.41-1.37,15.11,20.2,26,20,17.37-.32,31.03-55.81,41-115"/></g></svg>