<?xml version="1.0" encoding="UTF-8"?><svg xmlns="http://www.w3.org/2000/svg" viewBox="0 0 508 507.99"><defs><style>.c{fill:#121212;}.d{fill:#c53a17;}</style></defs><g id="a"/><g id="b"><g><path class="d" d="M15.09,345.97c-2.09-72.87-55.63-238.45,216.34-273.56,190.4-28.07,195.46-15.85,276.3-62.96-27.82,47.93-89.91,110.86-204.04,163.81C182.6,234.62,81.09,237.09,15.09,345.97Z"/><path class="c" d="M15.09,345.97c42.89-98.97,92-160.11,232.09-189.76C419.42,124.44,461.04,68.39,507.73,9.46c-27.82,47.93-89.91,112.3-204.04,165.25C182.6,236.06,81.09,237.09,15.09,345.97Z"/><path class="c" d="M199.66,265.73c14.3,63.11-32.93,118.72-115.54,89.83-3.47-1.44-3.47-2.6-2.31-5.63,14.59-37.7,51.7-74.96,111.35-85.79,3.18-.87,5.78-1.3,6.5,1.59Z"/><path class="d" d="M279.38,244.19c-1.81,98.25-82.01,177.34-180.7,177.34-14.13,0-27.88-1.62-41.08-4.69,25.11,21.67,57.81,34.77,93.58,34.77,79.15,0,143.31-64.16,143.31-143.31,0-23.05-5.45-44.82-15.11-64.11Z"/><path class="c" d="M272.03,220.77c55.78-27.91,87.34-43.23,117.85-63.42,24.7-16.55,86.66-61.57,117.85-57.04-40.71,19.19-90.81,79.03-123.03,96.87-33.01,17.96-58.8,23.6-112.66,23.6Z"/><path class="d" d="M24.64,495.15c0-30.97,9.92-59.61,26.74-82.95-16.27-16.02-28.71-35.92-35.77-58.22C5.63,373.41,0,395.43,0,418.77c0,29.69,9.11,57.24,24.69,80.03-.03-1.21-.05-2.43-.05-3.65Z"/></g></g></svg>