<svg version="1.1" xmlns="http://www.w3.org/2000/svg" viewBox="0 0 262 440" width="262" height="440">
  <!-- svg-source:excalidraw -->
  
  <defs>
    <style>
      @font-face {
        font-family: "Virgil";
        src: url("https://excalidraw.com/Virgil.woff2");
      }
      @font-face {
        font-family: "Cascadia";
        src: url("https://excalidraw.com/Cascadia.woff2");
      }
    </style>
  </defs>
  <rect x="0" y="0" width="262" height="440" fill="#ffffff"></rect><g stroke-linecap="round" transform="translate(11 11) rotate(0 120.5 209.5)"><path d="M-0.93 -1.1 C82.88 -0.2, 168.98 -0.93, 240.71 -0.28 M0.52 0.04 C82.44 -0.19, 165.29 -0.04, 240.33 -0.43 M241.43 0.13 C242.23 128.66, 241.66 259.47, 241.87 419.59 M240.5 -0.13 C240.83 159.37, 241.28 317.86, 240.94 419.41 M241.86 418.73 C152.76 420.14, 65.25 419.64, -0.58 417.52 M241.57 418.99 C161.88 419.45, 82.74 420.66, -0.53 418.83 M0.62 418.63 C-0.67 272.71, -0.74 128.47, -0.87 0.2 M0.38 418.61 C-1.67 276.75, -1.73 135.48, 0.52 0.25" stroke="#000000" stroke-width="1" fill="none"></path></g><g stroke-linecap="round" transform="translate(10 10) rotate(0 120.5 21.5)"><path d="M-1.56 0.63 C59.79 -2.42, 122.5 -0.25, 239.61 0.14 M-0.34 -0.2 C60.92 -0.02, 119.96 -0.49, 240.95 -0.77 M239.92 -0.4 C239.05 8.78, 240.65 22.67, 242.65 44.54 M241.31 -0.37 C240.42 16.3, 240.25 32.67, 241.03 43.6 M240.86 43.97 C173.76 45.03, 107.21 42.7, 1.06 43.45 M241.28 42.25 C164.99 41.49, 88.37 41.57, -0.06 42.28 M-0.95 43.06 C-0.15 34.1, -1.07 23.09, 0.27 -1.99 M0.37 42.75 C0.92 31.5, 0.05 19.11, 0.1 -0.04" stroke="#000000" stroke-width="1" fill="none"></path></g><g stroke-linecap="round" transform="translate(18 16) rotate(0 15.5 15.5)"><path d="M18.53 -0.36 C21.61 0.26, 25.61 3.07, 27.69 5.83 C29.77 8.59, 31.05 12.96, 31 16.23 C30.95 19.51, 29.64 23.02, 27.39 25.49 C25.14 27.95, 21.08 30.6, 17.5 31.04 C13.93 31.48, 8.81 30.03, 5.92 28.15 C3.04 26.28, 0.89 23, 0.19 19.81 C-0.52 16.63, 0.15 12.02, 1.67 9.04 C3.2 6.06, 5.96 3.23, 9.34 1.92 C12.72 0.62, 19.39 0.97, 21.95 1.2 C24.5 1.42, 24.76 3.05, 24.68 3.28 M9.83 0.44 C12.94 -0.96, 18.23 -0.86, 21.3 0.51 C24.37 1.88, 26.94 5.81, 28.26 8.68 C29.59 11.55, 29.66 14.5, 29.24 17.72 C28.82 20.95, 28.14 25.89, 25.75 28.04 C23.36 30.19, 18.46 31.01, 14.89 30.63 C11.32 30.24, 6.91 28.14, 4.34 25.74 C1.78 23.34, -0.21 19.13, -0.5 16.21 C-0.78 13.28, 0.85 10.59, 2.62 8.2 C4.38 5.81, 8.89 2.83, 10.1 1.86 C11.3 0.88, 9.85 2.07, 9.85 2.34" stroke="#000000" stroke-width="1" fill="none"></path></g><g transform="translate(61 21.5) rotate(0 85 10.5)"><text x="0" y="15" font-family="Virgil, Segoe UI Emoji" font-size="16px" fill="#000000" text-anchor="start" style="white-space: pre;" direction="ltr">Raptoreum Decrypted</text></g><g stroke-linecap="round"><g transform="translate(23 22) rotate(0 10.679485391327148 10.349324754304263)"><path d="M0.87 1.1 C4.43 4.46, 17.84 17.12, 21.49 20.06 M-0.13 0.64 C3.21 3.69, 16.52 15.27, 20.27 18.5" stroke="#000000" stroke-width="1" fill="none"></path></g></g><g stroke-linecap="round"><g transform="translate(43 19) rotate(0 -9.423314110934768 11.795351033834734)"><path d="M0.9 -0.28 C-2.52 3.57, -16.28 19.68, -19.75 23.69 M-0.09 -1.48 C-3.18 2.5, -14.53 20.66, -17.43 25.07" stroke="#000000" stroke-width="1" fill="none"></path></g></g><g transform="translate(38.65017579508276 164.4129985816578) rotate(0 93.93983656132008 -36.990733562282685)" stroke="none"><path fill="#000000" d="M -1.46,-8.17 Q -1.46,-8.17 -0.72,-8.70 0.02,-9.23 0.90,-10.09 1.78,-10.95 2.86,-11.60 3.93,-12.25 6.19,-12.56 8.45,-12.87 9.90,-11.93 11.35,-10.99 12.45,-11.33 13.54,-11.68 14.96,-13.05 16.39,-14.42 17.80,-14.66 19.21,-14.90 20.34,-14.62 21.47,-14.33 23.25,-13.25 25.04,-12.17 26.10,-10.74 27.16,-9.32 27.78,-10.35 28.39,-11.39 29.60,-12.01 30.80,-12.63 32.18,-13.52 33.56,-14.41 34.61,-14.96 35.66,-15.50 36.71,-15.81 37.76,-16.11 40.15,-16.02 42.55,-15.93 43.86,-15.03 45.18,-14.13 46.27,-14.11 47.37,-14.08 48.17,-15.19 48.97,-16.29 49.94,-16.76 50.90,-17.24 53.27,-17.02 55.64,-16.81 57.23,-15.15 58.82,-13.50 59.68,-12.06 60.53,-10.62 61.93,-10.59 63.33,-10.56 64.69,-10.93 66.05,-11.29 66.84,-12.50 67.64,-13.71 68.36,-14.61 69.07,-15.50 69.97,-16.66 70.87,-17.82 71.83,-19.07 72.78,-20.32 73.81,-21.50 74.84,-22.68 75.81,-23.70 76.79,-24.72 78.13,-26.66 79.47,-28.60 80.12,-29.46 80.77,-30.33 82.64,-31.75 84.50,-33.18 86.23,-34.87 87.95,-36.56 88.88,-37.81 89.81,-39.06 90.79,-40.23 91.77,-41.40 93.15,-42.71 94.53,-44.03 96.44,-44.48 98.34,-44.94 99.29,-43.08 100.23,-41.21 100.08,-38.39 99.93,-35.57 99.80,-33.35 99.67,-31.13 99.02,-28.67 98.37,-26.20 98.21,-24.78 98.05,-23.36 97.71,-22.23 97.37,-21.09 96.19,-21.58 95.01,-22.06 97.54,-24.50 100.06,-26.93 102.14,-28.87 104.21,-30.82 106.27,-32.23 108.33,-33.64 110.52,-34.99 112.71,-36.34 113.90,-37.04 115.08,-37.74 116.14,-38.83 117.20,-39.91 118.06,-40.83 118.93,-41.75 119.82,-42.38 120.71,-43.02 122.76,-43.38 124.81,-43.73 126.30,-42.42 127.79,-41.11 128.05,-39.92 128.30,-38.73 130.33,-38.51 132.36,-38.29 133.50,-37.34 134.63,-36.39 135.13,-36.20 135.63,-36.01 135.89,-35.70 136.14,-35.40 136.32,-35.04 136.49,-34.69 136.57,-34.30 136.66,-33.92 136.65,-33.52 136.64,-33.12 136.53,-32.74 136.43,-32.36 136.24,-32.02 136.04,-31.67 135.77,-31.38 135.50,-31.09 135.17,-30.88 134.84,-30.66 134.47,-30.53 134.09,-30.40 133.70,-30.36 133.31,-30.32 132.91,-30.38 132.52,-30.44 132.16,-30.59 131.79,-30.74 131.47,-30.97 131.15,-31.20 130.88,-33.69 130.61,-36.18 131.15,-39.06 131.70,-41.94 132.59,-44.68 133.47,-47.42 133.77,-48.95 134.06,-50.49 134.21,-52.20 134.35,-53.91 134.89,-54.84 135.43,-55.76 136.57,-56.76 137.72,-57.77 139.50,-57.93 141.28,-58.10 142.34,-57.58 143.41,-57.06 144.19,-56.08 144.98,-55.10 145.81,-53.81 146.64,-52.52 147.58,-51.60 148.52,-50.69 148.74,-49.22 148.97,-47.75 149.49,-46.45 150.01,-45.14 148.90,-44.69 147.79,-44.24 148.54,-45.31 149.28,-46.37 150.88,-48.20 152.48,-50.03 153.53,-51.08 154.58,-52.13 155.28,-53.27 155.97,-54.41 156.96,-55.18 157.95,-55.95 158.61,-57.48 159.28,-59.01 160.03,-60.44 160.77,-61.87 163.13,-63.27 165.48,-64.67 167.17,-63.50 168.85,-62.33 169.51,-61.41 170.18,-60.49 170.92,-59.28 171.67,-58.08 172.73,-56.25 173.80,-54.41 174.56,-53.03 175.32,-51.65 174.05,-51.29 172.78,-50.94 173.24,-52.41 173.69,-53.87 174.00,-54.89 174.30,-55.91 174.67,-57.30 175.05,-58.70 175.23,-60.03 175.41,-61.35 176.01,-63.46 176.61,-65.57 177.53,-67.09 178.45,-68.61 179.48,-69.35 180.51,-70.09 182.10,-70.35 183.70,-70.62 184.80,-70.31 185.90,-70.00 186.99,-68.52 188.08,-67.04 188.29,-65.68 188.51,-64.31 188.53,-63.86 188.55,-63.41 188.53,-62.99 188.51,-62.58 188.38,-62.18 188.26,-61.79 188.05,-61.43 187.83,-61.07 187.54,-60.78 187.25,-60.49 186.89,-60.27 186.54,-60.06 186.14,-59.93 185.75,-59.81 185.33,-59.78 184.92,-59.76 184.51,-59.83 184.10,-59.91 183.73,-60.08 183.35,-60.24 183.02,-60.50 182.69,-60.75 182.44,-61.08 182.18,-61.41 182.01,-61.78 181.84,-62.16 181.76,-62.57 181.69,-62.98 182.99,-64.65 184.30,-66.31 185.15,-67.70 186.01,-69.08 186.52,-69.30 187.04,-69.52 187.59,-69.57 188.15,-69.62 188.69,-69.48 189.24,-69.35 189.71,-69.05 190.18,-68.75 190.53,-68.31 190.88,-67.88 191.08,-67.35 191.27,-66.83 191.28,-66.27 191.30,-65.71 191.14,-65.17 190.97,-64.64 190.65,-64.18 190.32,-63.73 189.87,-63.40 189.41,-63.08 188.88,-62.91 188.35,-62.75 187.79,-62.76 187.23,-62.78 186.70,-62.97 186.18,-63.16 185.74,-63.51 185.30,-63.86 185.00,-64.33 184.70,-64.80 184.56,-65.34 184.43,-65.89 184.47,-66.44 184.52,-67.00 184.74,-67.52 184.96,-68.03 185.33,-68.45 185.71,-68.86 186.19,-69.14 186.68,-69.41 187.23,-69.52 187.78,-69.63 188.33,-69.55 188.89,-69.48 189.39,-69.23 189.89,-68.98 190.28,-68.59 190.68,-68.19 190.93,-67.69 191.18,-67.19 191.25,-66.63 191.33,-66.08 191.23,-65.53 191.12,-64.98 190.85,-64.49 190.57,-64.01 190.16,-63.63 189.74,-63.26 189.74,-63.26 189.74,-63.26 188.38,-61.80 187.02,-60.35 187.78,-61.88 188.55,-63.41 188.53,-62.99 188.51,-62.58 188.38,-62.18 188.26,-61.79 188.05,-61.43 187.83,-61.08 187.54,-60.78 187.25,-60.49 186.89,-60.27 186.54,-60.06 186.14,-59.93 185.75,-59.81 185.33,-59.78 184.92,-59.76 184.51,-59.83 184.10,-59.91 183.73,-60.07 183.35,-60.24 183.02,-60.50 182.69,-60.75 182.44,-61.08 182.18,-61.41 182.01,-61.78 181.84,-62.16 181.76,-62.57 181.69,-62.98 182.13,-63.33 182.58,-63.69 182.16,-62.28 181.74,-60.86 181.68,-59.03 181.62,-57.20 181.41,-56.11 181.21,-55.03 180.60,-53.36 179.99,-51.69 178.98,-50.16 177.97,-48.63 177.51,-47.44 177.05,-46.26 175.42,-45.61 173.79,-44.95 171.85,-46.28 169.91,-47.61 169.33,-48.68 168.76,-49.75 168.27,-50.73 167.78,-51.71 167.05,-52.90 166.32,-54.10 165.41,-55.72 164.50,-57.34 163.25,-58.22 162.00,-59.09 164.20,-59.77 166.39,-60.46 165.80,-58.92 165.22,-57.38 164.62,-55.92 164.02,-54.45 162.88,-53.04 161.74,-51.62 160.62,-50.88 159.50,-50.13 158.87,-49.26 158.24,-48.40 157.45,-47.66 156.65,-46.93 155.14,-44.56 153.62,-42.19 151.98,-40.79 150.35,-39.39 148.08,-40.08 145.81,-40.78 145.07,-41.63 144.34,-42.48 143.86,-43.58 143.39,-44.68 142.76,-46.60 142.14,-48.52 141.62,-49.51 141.11,-50.50 140.10,-51.62 139.10,-52.74 138.90,-51.21 138.70,-49.68 138.42,-47.95 138.15,-46.22 137.69,-43.76 137.23,-41.30 136.43,-38.65 135.63,-36.01 135.89,-35.70 136.14,-35.40 136.31,-35.04 136.49,-34.69 136.57,-34.30 136.66,-33.92 136.65,-33.52 136.64,-33.12 136.53,-32.74 136.43,-32.36 136.24,-32.02 136.04,-31.67 135.77,-31.38 135.50,-31.09 135.17,-30.88 134.84,-30.66 134.47,-30.53 134.09,-30.40 133.70,-30.36 133.31,-30.32 132.91,-30.38 132.52,-30.44 132.16,-30.59 131.79,-30.74 131.47,-30.97 131.15,-31.20 130.74,-31.37 130.33,-31.54 129.16,-32.40 127.99,-33.26 126.34,-34.04 124.69,-34.82 123.43,-36.49 122.17,-38.16 120.87,-37.22 119.57,-36.29 118.18,-35.40 116.78,-34.50 115.64,-34.04 114.51,-33.57 112.46,-32.17 110.42,-30.77 108.70,-29.43 106.97,-28.08 105.07,-25.99 103.18,-23.91 100.74,-21.29 98.30,-18.67 97.11,-18.37 95.92,-18.06 94.45,-19.27 92.98,-20.48 93.55,-22.23 94.12,-23.98 94.40,-25.52 94.68,-27.06 95.07,-29.09 95.46,-31.13 95.31,-33.33 95.16,-35.52 95.16,-38.42 95.17,-41.32 96.18,-40.65 97.20,-39.98 96.17,-39.23 95.13,-38.47 94.22,-37.47 93.30,-36.46 92.25,-35.04 91.20,-33.63 89.50,-31.53 87.79,-29.43 85.97,-27.44 84.14,-25.45 83.37,-24.23 82.59,-23.01 81.81,-21.91 81.04,-20.81 80.20,-19.86 79.36,-18.91 78.58,-17.92 77.81,-16.93 76.99,-15.55 76.17,-14.18 75.36,-12.86 74.56,-11.53 73.44,-10.07 72.32,-8.60 71.00,-7.27 69.68,-5.94 68.86,-5.16 68.04,-4.39 66.62,-3.95 65.21,-3.52 64.11,-3.56 63.02,-3.61 61.64,-4.01 60.26,-4.40 58.78,-4.58 57.30,-4.77 56.01,-6.03 54.72,-7.29 53.33,-8.60 51.94,-9.91 51.16,-9.01 50.39,-8.11 48.33,-7.56 46.27,-7.00 44.57,-7.21 42.86,-7.42 41.61,-8.50 40.36,-9.58 38.31,-8.89 36.25,-8.20 35.07,-7.19 33.88,-6.18 32.47,-5.57 31.06,-4.97 30.01,-4.52 28.97,-4.08 27.55,-3.77 26.13,-3.47 24.88,-3.66 23.64,-3.86 22.03,-5.24 20.42,-6.63 19.64,-7.35 18.85,-8.08 17.47,-6.67 16.09,-5.26 14.86,-4.87 13.63,-4.48 12.21,-4.53 10.79,-4.58 9.31,-5.48 7.83,-6.38 6.83,-7.02 5.83,-7.66 7.06,-7.59 8.30,-7.51 6.69,-6.83 5.09,-6.16 4.11,-5.49 3.12,-4.83 2.29,-4.30 1.46,-3.78 1.17,-3.64 0.89,-3.50 0.58,-3.42 0.27,-3.35 -0.04,-3.36 -0.36,-3.36 -0.66,-3.44 -0.97,-3.53 -1.25,-3.68 -1.53,-3.83 -1.76,-4.05 -2.00,-4.26 -2.17,-4.52 -2.35,-4.79 -2.46,-5.09 -2.57,-5.39 -2.60,-5.70 -2.63,-6.02 -2.59,-6.33 -2.55,-6.65 -2.43,-6.94 -2.31,-7.24 -2.13,-7.50 -1.94,-7.76 -1.70,-7.96 -1.46,-8.17 -1.46,-8.17 L -1.46,-8.17 Z"></path></g><g transform="translate(37 65.5) rotate(0 87.5 10.5)"><text x="0" y="15" font-family="Virgil, Segoe UI Emoji" font-size="16px" fill="#000000" text-anchor="start" style="white-space: pre;" direction="ltr">Raptoreum Dashboard</text></g><g stroke-linecap="round"><g transform="translate(36.90276497332388 161.03240313053885) rotate(0 0.2556491504470273 -31.575765398932248)"><path d="M0.47 -0.71 C0.26 -11.35, -0.62 -54.17, -0.87 -64.69 M-0.74 1.54 C-0.61 -8.91, 1.04 -52.93, 1.38 -63.6" stroke="#000000" stroke-width="1" fill="none"></path></g></g><g stroke-linecap="round"><g transform="translate(36 162) rotate(0 98.1944760341512 -0.1798705196708852)"><path d="M-0.98 -1.16 C32.01 -1.5, 164.52 -0.94, 197.37 -0.94 M0.71 0.85 C33.61 1.15, 163.64 0.32, 196.61 0.11" stroke="#000000" stroke-width="1" fill="none"></path></g></g><g transform="translate(36 179.5) rotate(0 98.5 84.5)"><text x="0" y="8.071428571428571" font-family="Virgil, Segoe UI Emoji" font-size="8.994082840236679px" fill="#000000" text-anchor="start" style="white-space: pre;" direction="ltr">Price:</text><text x="0" y="20.142857142857142" font-family="Virgil, Segoe UI Emoji" font-size="8.994082840236679px" fill="#000000" text-anchor="start" style="white-space: pre;" direction="ltr">0.01 USD</text><text x="0" y="32.214285714285715" font-family="Virgil, Segoe UI Emoji" font-size="8.994082840236679px" fill="#000000" text-anchor="start" style="white-space: pre;" direction="ltr">MarketCap:</text><text x="0" y="44.285714285714285" font-family="Virgil, Segoe UI Emoji" font-size="8.994082840236679px" fill="#000000" text-anchor="start" style="white-space: pre;" direction="ltr">13,722,909.00 USD</text><text x="0" y="56.357142857142854" font-family="Virgil, Segoe UI Emoji" font-size="8.994082840236679px" fill="#000000" text-anchor="start" style="white-space: pre;" direction="ltr">24h Volume:</text><text x="0" y="68.42857142857143" font-family="Virgil, Segoe UI Emoji" font-size="8.994082840236679px" fill="#000000" text-anchor="start" style="white-space: pre;" direction="ltr">68,868.00 USD</text><text x="0" y="80.5" font-family="Virgil, Segoe UI Emoji" font-size="8.994082840236679px" fill="#000000" text-anchor="start" style="white-space: pre;" direction="ltr">Maximum Supply:</text><text x="0" y="92.57142857142857" font-family="Virgil, Segoe UI Emoji" font-size="8.994082840236679px" fill="#000000" text-anchor="start" style="white-space: pre;" direction="ltr">21,000,000,000 RTM</text><text x="0" y="104.64285714285714" font-family="Virgil, Segoe UI Emoji" font-size="8.994082840236679px" fill="#000000" text-anchor="start" style="white-space: pre;" direction="ltr"></text><text x="0" y="116.71428571428571" font-family="Virgil, Segoe UI Emoji" font-size="8.994082840236679px" fill="#000000" text-anchor="start" style="white-space: pre;" direction="ltr">Latest News:</text><text x="0" y="128.78571428571428" font-family="Virgil, Segoe UI Emoji" font-size="8.994082840236679px" fill="#000000" text-anchor="start" style="white-space: pre;" direction="ltr">Lorem ipsum dolor sit. Lorem ipsum dolor sit.</text><text x="0" y="140.85714285714286" font-family="Virgil, Segoe UI Emoji" font-size="8.994082840236679px" fill="#000000" text-anchor="start" style="white-space: pre;" direction="ltr">Lorem ipsum dolor sit. Lorem ipsum dolor sit.</text><text x="0" y="152.92857142857142" font-family="Virgil, Segoe UI Emoji" font-size="8.994082840236679px" fill="#000000" text-anchor="start" style="white-space: pre;" direction="ltr">Lorem ipsum dolor sit. Lorem ipsum dolor sit.</text><text x="0" y="165" font-family="Virgil, Segoe UI Emoji" font-size="8.994082840236679px" fill="#000000" text-anchor="start" style="white-space: pre;" direction="ltr">Read more...</text></g></svg>